<svg width="174" height="64" viewBox="0 0 174 64" fill="none" xmlns="http://www.w3.org/2000/svg">
<line x1="7" y1="3" x2="7" y2="64" stroke="#2E2E2E" stroke-width="14"/>
<mask id="path-2-outside-1_297_7081" maskUnits="userSpaceOnUse" x="21" y="6" width="153" height="53" fill="black">
<rect fill="white" x="21" y="6" width="153" height="53"/>
<path d="M22.2 57L31.72 8H40.68L51.67 36.91L62.66 8H71.62L81.14 57H70.43L65.32 30.54L55.31 57H48.03L38.02 30.54L32.91 57H22.2ZM107.454 57.91C104.701 57.91 102.064 57.4783 99.544 56.615C97.024 55.7283 94.819 54.4683 92.929 52.835C91.039 51.1783 89.674 49.2067 88.834 46.92L98.704 43.28C98.9373 43.9567 99.4507 44.61 100.244 45.24C101.061 45.87 102.087 46.395 103.324 46.815C104.561 47.2117 105.937 47.41 107.454 47.41C108.854 47.41 110.172 47.2117 111.409 46.815C112.646 46.395 113.649 45.8233 114.419 45.1C115.189 44.3767 115.574 43.5367 115.574 42.58C115.574 41.6 115.166 40.795 114.349 40.165C113.556 39.5117 112.529 38.9983 111.269 38.625C110.032 38.2283 108.761 37.9367 107.454 37.75C103.907 37.2367 100.722 36.3967 97.899 35.23C95.099 34.04 92.8823 32.4067 91.249 30.33C89.639 28.2533 88.834 25.6167 88.834 22.42C88.834 19.3633 89.6973 16.6917 91.424 14.405C93.1507 12.095 95.4257 10.2983 98.249 9.015C101.096 7.73166 104.164 7.09 107.454 7.09C110.207 7.09 112.844 7.53333 115.364 8.42C117.907 9.28333 120.124 10.5433 122.014 12.2C123.904 13.8567 125.257 15.84 126.074 18.15L116.204 21.72C115.971 21.0433 115.446 20.4017 114.629 19.795C113.836 19.165 112.821 18.6517 111.584 18.255C110.347 17.8583 108.971 17.66 107.454 17.66C106.101 17.6367 104.806 17.835 103.569 18.255C102.332 18.675 101.317 19.2467 100.524 19.97C99.7307 20.6933 99.334 21.51 99.334 22.42C99.334 23.68 99.7073 24.625 100.454 25.255C101.201 25.8617 102.181 26.2933 103.394 26.55C104.631 26.8067 105.984 27.04 107.454 27.25C110.814 27.74 113.906 28.615 116.729 29.875C119.552 31.135 121.816 32.815 123.519 34.915C125.222 37.015 126.074 39.57 126.074 42.58C126.074 45.6367 125.211 48.32 123.484 50.63C121.781 52.9167 119.517 54.7017 116.694 55.985C113.871 57.2683 110.791 57.91 107.454 57.91ZM171.913 57H158.193L145.663 39.29L144.263 40.97V57H133.763V8H144.263V24.66L158.193 8H171.913L152.523 31.1L171.913 57Z"/>
</mask>
<path d="M22.2 57L31.72 8H40.68L51.67 36.91L62.66 8H71.62L81.14 57H70.43L65.32 30.54L55.31 57H48.03L38.02 30.54L32.91 57H22.2ZM107.454 57.91C104.701 57.91 102.064 57.4783 99.544 56.615C97.024 55.7283 94.819 54.4683 92.929 52.835C91.039 51.1783 89.674 49.2067 88.834 46.92L98.704 43.28C98.9373 43.9567 99.4507 44.61 100.244 45.24C101.061 45.87 102.087 46.395 103.324 46.815C104.561 47.2117 105.937 47.41 107.454 47.41C108.854 47.41 110.172 47.2117 111.409 46.815C112.646 46.395 113.649 45.8233 114.419 45.1C115.189 44.3767 115.574 43.5367 115.574 42.58C115.574 41.6 115.166 40.795 114.349 40.165C113.556 39.5117 112.529 38.9983 111.269 38.625C110.032 38.2283 108.761 37.9367 107.454 37.75C103.907 37.2367 100.722 36.3967 97.899 35.23C95.099 34.04 92.8823 32.4067 91.249 30.33C89.639 28.2533 88.834 25.6167 88.834 22.42C88.834 19.3633 89.6973 16.6917 91.424 14.405C93.1507 12.095 95.4257 10.2983 98.249 9.015C101.096 7.73166 104.164 7.09 107.454 7.09C110.207 7.09 112.844 7.53333 115.364 8.42C117.907 9.28333 120.124 10.5433 122.014 12.2C123.904 13.8567 125.257 15.84 126.074 18.15L116.204 21.72C115.971 21.0433 115.446 20.4017 114.629 19.795C113.836 19.165 112.821 18.6517 111.584 18.255C110.347 17.8583 108.971 17.66 107.454 17.66C106.101 17.6367 104.806 17.835 103.569 18.255C102.332 18.675 101.317 19.2467 100.524 19.97C99.7307 20.6933 99.334 21.51 99.334 22.42C99.334 23.68 99.7073 24.625 100.454 25.255C101.201 25.8617 102.181 26.2933 103.394 26.55C104.631 26.8067 105.984 27.04 107.454 27.25C110.814 27.74 113.906 28.615 116.729 29.875C119.552 31.135 121.816 32.815 123.519 34.915C125.222 37.015 126.074 39.57 126.074 42.58C126.074 45.6367 125.211 48.32 123.484 50.63C121.781 52.9167 119.517 54.7017 116.694 55.985C113.871 57.2683 110.791 57.91 107.454 57.91ZM171.913 57H158.193L145.663 39.29L144.263 40.97V57H133.763V8H144.263V24.66L158.193 8H171.913L152.523 31.1L171.913 57Z" fill="#2E2E2E"/>
<path d="M22.2 57L21.4521 56.8547L21.2758 57.7619H22.2V57ZM31.72 8V7.23809H31.0919L30.9721 7.85469L31.72 8ZM40.68 8L41.3922 7.72926L41.2055 7.23809H40.68V8ZM51.67 36.91L50.9578 37.1807L51.67 39.0542L52.3822 37.1807L51.67 36.91ZM62.66 8V7.23809H62.1345L61.9478 7.72926L62.66 8ZM71.62 8L72.3679 7.85469L72.2481 7.23809H71.62V8ZM81.14 57V57.7619H82.0642L81.8879 56.8547L81.14 57ZM70.43 57L69.6819 57.1445L69.8012 57.7619H70.43V57ZM65.32 30.54L66.0681 30.3955L65.5584 27.7565L64.6074 30.2704L65.32 30.54ZM55.31 57V57.7619H55.8364L56.0226 57.2696L55.31 57ZM48.03 57L47.3174 57.2696L47.5036 57.7619H48.03V57ZM38.02 30.54L38.7326 30.2704L37.7816 27.7565L37.2719 30.3955L38.02 30.54ZM32.91 57V57.7619H33.5388L33.6581 57.1445L32.91 57ZM22.2 57L22.9479 57.1453L32.4679 8.14531L31.72 8L30.9721 7.85469L21.4521 56.8547L22.2 57ZM31.72 8V8.7619H40.68V8V7.23809H31.72V8ZM40.68 8L39.9678 8.27073L50.9578 37.1807L51.67 36.91L52.3822 36.6393L41.3922 7.72926L40.68 8ZM51.67 36.91L52.3822 37.1807L63.3722 8.27073L62.66 8L61.9478 7.72926L50.9578 36.6393L51.67 36.91ZM62.66 8V8.7619H71.62V8V7.23809H62.66V8ZM71.62 8L70.8721 8.14531L80.3921 57.1453L81.14 57L81.8879 56.8547L72.3679 7.85469L71.62 8ZM81.14 57V56.2381H70.43V57V57.7619H81.14V57ZM70.43 57L71.1781 56.8555L66.0681 30.3955L65.32 30.54L64.5719 30.6845L69.6819 57.1445L70.43 57ZM65.32 30.54L64.6074 30.2704L54.5974 56.7304L55.31 57L56.0226 57.2696L66.0326 30.8096L65.32 30.54ZM55.31 57V56.2381H48.03V57V57.7619H55.31V57ZM48.03 57L48.7426 56.7304L38.7326 30.2704L38.02 30.54L37.3074 30.8096L47.3174 57.2696L48.03 57ZM38.02 30.54L37.2719 30.3955L32.1619 56.8555L32.91 57L33.6581 57.1445L38.7681 30.6845L38.02 30.54ZM32.91 57V56.2381H22.2V57V57.7619H32.91V57ZM99.544 56.615L99.2911 57.3337L99.2971 57.3358L99.544 56.615ZM92.929 52.835L92.4268 53.408L92.4308 53.4115L92.929 52.835ZM88.834 46.92L88.5704 46.2052L87.8564 46.4685L88.1188 47.1827L88.834 46.92ZM98.704 43.28L99.4243 43.0316L99.1706 42.2959L98.4404 42.5652L98.704 43.28ZM100.244 45.24L99.7701 45.8367L99.7786 45.8433L100.244 45.24ZM103.324 46.815L103.079 47.5365L103.091 47.5405L103.324 46.815ZM111.409 46.815L111.642 47.5406L111.654 47.5364L111.409 46.815ZM114.419 45.1L114.941 45.6553V45.6553L114.419 45.1ZM114.349 40.165L113.865 40.7531L113.874 40.7608L113.884 40.7683L114.349 40.165ZM111.269 38.625L111.036 39.3505L111.044 39.3531L111.053 39.3555L111.269 38.625ZM107.454 37.75L107.345 38.5041L107.346 38.5042L107.454 37.75ZM97.899 35.23L97.601 35.9312L97.608 35.9342L97.899 35.23ZM91.249 30.33L90.6468 30.7968L90.6501 30.801L91.249 30.33ZM91.424 14.405L92.032 14.8641L92.0342 14.8612L91.424 14.405ZM98.249 9.015L97.9359 8.32041L97.9337 8.32138L98.249 9.015ZM115.364 8.42L115.111 9.13876L115.119 9.14147L115.364 8.42ZM122.014 12.2L122.516 11.627V11.627L122.014 12.2ZM126.074 18.15L126.333 18.8665L127.044 18.6092L126.792 17.896L126.074 18.15ZM116.204 21.72L115.484 21.9684L115.736 22.6995L116.463 22.4365L116.204 21.72ZM114.629 19.795L114.155 20.3917L114.165 20.3993L114.175 20.4066L114.629 19.795ZM111.584 18.255L111.351 18.9805V18.9805L111.584 18.255ZM107.454 17.66L107.441 18.4219H107.454V17.66ZM103.569 18.255L103.814 18.9764H103.814L103.569 18.255ZM100.454 25.255L99.9626 25.8374L99.9735 25.8463L100.454 25.255ZM103.394 26.55L103.236 27.2954L103.239 27.296L103.394 26.55ZM107.454 27.25L107.564 26.4961L107.562 26.4958L107.454 27.25ZM123.519 34.915L124.111 34.435V34.435L123.519 34.915ZM123.484 50.63L122.874 50.1738L122.873 50.1749L123.484 50.63ZM116.694 55.985L116.379 55.2914V55.2914L116.694 55.985ZM107.454 57.91V57.1481C104.782 57.1481 102.229 56.7294 99.7909 55.8942L99.544 56.615L99.2971 57.3358C101.899 58.2273 104.619 58.6719 107.454 58.6719V57.91ZM99.544 56.615L99.7969 55.8963C97.3605 55.0391 95.2401 53.8253 93.4272 52.2585L92.929 52.835L92.4308 53.4115C94.3978 55.1114 96.6875 56.4176 99.2911 57.3337L99.544 56.615ZM92.929 52.835L93.4312 52.262C91.6339 50.6866 90.3438 48.8205 89.5492 46.6573L88.834 46.92L88.1188 47.1827C89.0042 49.5929 90.4441 51.6701 92.4268 53.408L92.929 52.835ZM88.834 46.92L89.0976 47.6348L98.9676 43.9948L98.704 43.28L98.4404 42.5652L88.5704 46.2052L88.834 46.92ZM98.704 43.28L97.9837 43.5284C98.2801 44.388 98.9083 45.1522 99.7702 45.8367L100.244 45.24L100.718 44.6433C99.993 44.0678 99.5945 43.5253 99.4243 43.0316L98.704 43.28ZM100.244 45.24L99.7786 45.8433C100.677 46.5361 101.783 47.0963 103.079 47.5364L103.324 46.815L103.569 46.0936C102.392 45.6937 101.445 45.2039 100.709 44.6367L100.244 45.24ZM103.324 46.815L103.091 47.5405C104.415 47.9649 105.871 48.1719 107.454 48.1719V47.41V46.6481C106.003 46.6481 104.707 46.4584 103.557 46.0895L103.324 46.815ZM107.454 47.41V48.1719C108.927 48.1719 110.324 47.9631 111.642 47.5405L111.409 46.815L111.176 46.0895C110.02 46.4602 108.781 46.6481 107.454 46.6481V47.41ZM111.409 46.815L111.654 47.5364C112.97 47.0895 114.075 46.4686 114.941 45.6553L114.419 45.1L113.897 44.5447C113.223 45.1781 112.321 45.7005 111.164 46.0936L111.409 46.815ZM114.419 45.1L114.941 45.6553C115.846 44.8046 116.336 43.7701 116.336 42.58H115.574H114.812C114.812 43.3032 114.532 43.9487 113.897 44.5447L114.419 45.1ZM115.574 42.58H116.336C116.336 41.3498 115.807 40.3272 114.814 39.5617L114.349 40.165L113.884 40.7683C114.525 41.2628 114.812 41.8502 114.812 42.58H115.574ZM114.349 40.165L114.833 39.5769C113.942 38.8432 112.817 38.2891 111.485 37.8945L111.269 38.625L111.053 39.3555C112.241 39.7076 113.169 40.1801 113.865 40.7531L114.349 40.165ZM111.269 38.625L111.502 37.8995C110.224 37.4895 108.91 37.1884 107.562 36.9958L107.454 37.75L107.346 38.5042C108.611 38.685 109.841 38.9671 111.036 39.3505L111.269 38.625ZM107.454 37.75L107.563 36.996C104.068 36.4901 100.946 35.6647 98.19 34.5258L97.899 35.23L97.608 35.9342C100.499 37.1286 103.746 37.9832 107.345 38.504L107.454 37.75ZM97.899 35.23L98.197 34.5288C95.497 33.3813 93.3906 31.8204 91.8479 29.859L91.249 30.33L90.6501 30.801C92.3741 32.9929 94.701 34.6987 97.601 35.9312L97.899 35.23ZM91.249 30.33L91.8511 29.8632C90.3656 27.9471 89.5959 25.4853 89.5959 22.42H88.834H88.0721C88.0721 25.7481 88.9124 28.5596 90.6468 30.7968L91.249 30.33ZM88.834 22.42H89.5959C89.5959 19.5172 90.4121 17.0094 92.032 14.8641L91.424 14.405L90.816 13.9459C88.9826 16.3739 88.0721 19.2094 88.0721 22.42H88.834ZM91.424 14.405L92.0342 14.8612C93.6784 12.6616 95.8486 10.943 98.5643 9.70861L98.249 9.015L97.9337 8.32138C95.0027 9.65367 92.6229 11.5284 90.8137 13.9488L91.424 14.405ZM98.249 9.015L98.5621 9.70958C101.305 8.47299 104.266 7.8519 107.454 7.8519V7.09V6.32809C104.062 6.32809 100.886 6.99034 97.9359 8.32042L98.249 9.015ZM107.454 7.09V7.8519C110.124 7.8519 112.675 8.28151 115.111 9.13871L115.364 8.42L115.617 7.70129C113.013 6.78515 110.291 6.32809 107.454 6.32809V7.09ZM115.364 8.42L115.119 9.14147C117.574 9.9749 119.702 11.1866 121.512 12.7729L122.014 12.2L122.516 11.627C120.546 9.90004 118.24 8.59177 115.609 7.69853L115.364 8.42ZM122.014 12.2L121.512 12.7729C123.306 14.3459 124.584 16.2203 125.356 18.404L126.074 18.15L126.792 17.896C125.931 15.4597 124.502 13.3675 122.516 11.627L122.014 12.2ZM126.074 18.15L125.815 17.4335L115.945 21.0035L116.204 21.72L116.463 22.4365L126.333 18.8665L126.074 18.15ZM116.204 21.72L116.924 21.4716C116.624 20.6005 115.973 19.8445 115.083 19.1834L114.629 19.795L114.175 20.4066C114.918 20.9588 115.317 21.4861 115.484 21.9684L116.204 21.72ZM114.629 19.795L115.103 19.1983C114.22 18.4976 113.117 17.9467 111.817 17.5295L111.584 18.255L111.351 18.9805C112.524 19.3566 113.451 19.8324 114.155 20.3917L114.629 19.795ZM111.584 18.255L111.817 17.5295C110.493 17.1051 109.037 16.8981 107.454 16.8981V17.66V18.4219C108.905 18.4219 110.201 18.6116 111.351 18.9805L111.584 18.255ZM107.454 17.66L107.467 16.8982C106.029 16.8734 104.647 17.0843 103.324 17.5336L103.569 18.255L103.814 18.9764C104.965 18.5857 106.172 18.3999 107.441 18.4218L107.454 17.66ZM103.569 18.255L103.324 17.5336C102.009 17.9802 100.896 18.5994 100.011 19.407L100.524 19.97L101.037 20.533C101.738 19.894 102.656 19.3698 103.814 18.9764L103.569 18.255ZM100.524 19.97L100.011 19.407C99.0901 20.2463 98.5721 21.257 98.5721 22.42H99.334H100.096C100.096 21.763 100.371 21.1403 101.037 20.533L100.524 19.97ZM99.334 22.42H98.5721C98.5721 23.8346 98.9973 25.0228 99.9627 25.8373L100.454 25.255L100.945 24.6727C100.417 24.2272 100.096 23.5254 100.096 22.42H99.334ZM100.454 25.255L99.9735 25.8463C100.837 26.5481 101.938 27.0207 103.236 27.2954L103.394 26.55L103.552 25.8046C102.423 25.5659 101.564 25.1753 100.934 24.6637L100.454 25.255ZM103.394 26.55L103.239 27.296C104.494 27.5564 105.863 27.7924 107.346 28.0042L107.454 27.25L107.562 26.4958C106.105 26.2876 104.767 26.0569 103.549 25.804L103.394 26.55ZM107.454 27.25L107.344 28.0039C110.642 28.4848 113.665 29.3419 116.418 30.5708L116.729 29.875L117.039 29.1792C114.146 27.8881 110.986 26.9952 107.564 26.4961L107.454 27.25ZM116.729 29.875L116.418 30.5708C119.148 31.789 121.31 33.4005 122.927 35.395L123.519 34.915L124.111 34.435C122.322 32.2295 119.956 30.481 117.039 29.1792L116.729 29.875ZM123.519 34.915L122.927 35.395C124.508 37.3438 125.312 39.7238 125.312 42.58H126.074H126.836C126.836 39.4162 125.937 36.6862 124.111 34.435L123.519 34.915ZM126.074 42.58H125.312C125.312 45.4827 124.496 48.0037 122.874 50.1738L123.484 50.63L124.094 51.0862C125.925 48.6363 126.836 45.7906 126.836 42.58H126.074ZM123.484 50.63L122.873 50.1749C121.253 52.3494 119.095 54.0565 116.379 55.2914L116.694 55.985L117.009 56.6786C119.939 55.3468 122.308 53.4839 124.095 51.0851L123.484 50.63ZM116.694 55.985L116.379 55.2914C113.662 56.5264 110.69 57.1481 107.454 57.1481V57.91V58.6719C110.891 58.6719 114.08 58.0103 117.009 56.6786L116.694 55.985ZM171.913 57V57.7619H173.435L172.522 56.5434L171.913 57ZM158.193 57L157.571 57.4401L157.798 57.7619H158.193V57ZM145.662 39.29L146.284 38.8499L145.712 38.0406L145.077 38.8022L145.662 39.29ZM144.262 40.97L143.677 40.4822L143.501 40.6942V40.97H144.262ZM144.262 57V57.7619H145.024V57H144.262ZM133.762 57H133.001V57.7619H133.762V57ZM133.762 8V7.23809H133.001V8H133.762ZM144.262 8H145.024V7.23809H144.262V8ZM144.262 24.66H143.501V26.759L144.847 25.1487L144.262 24.66ZM158.193 8V7.23809H157.836L157.608 7.51127L158.193 8ZM171.913 8L172.496 8.48984L173.547 7.23809H171.913V8ZM152.523 31.1L151.939 30.6102L151.55 31.0729L151.913 31.5566L152.523 31.1ZM171.913 57V56.2381H158.193V57V57.7619H171.913V57ZM158.193 57L158.814 56.5599L146.284 38.8499L145.662 39.29L145.041 39.73L157.571 57.4401L158.193 57ZM145.662 39.29L145.077 38.8022L143.677 40.4822L144.262 40.97L144.848 41.4578L146.248 39.7778L145.662 39.29ZM144.262 40.97H143.501V57H144.262H145.024V40.97H144.262ZM144.262 57V56.2381H133.762V57V57.7619H144.262V57ZM133.762 57H134.524V8H133.762H133.001V57H133.762ZM133.762 8V8.7619H144.262V8V7.23809H133.762V8ZM144.262 8H143.501V24.66H144.262H145.024V8H144.262ZM144.262 24.66L144.847 25.1487L158.777 8.48872L158.193 8L157.608 7.51127L143.678 24.1713L144.262 24.66ZM158.193 8V8.7619H171.913V8V7.23809H158.193V8ZM171.913 8L171.329 7.51015L151.939 30.6102L152.523 31.1L153.106 31.5898L172.496 8.48984L171.913 8ZM152.523 31.1L151.913 31.5566L171.303 57.4566L171.913 57L172.522 56.5434L153.132 30.6434L152.523 31.1Z" fill="#2E2E2E" mask="url(#path-2-outside-1_297_7081)"/>
</svg>
