<svg width="463" height="128" viewBox="0 0 463 128" fill="none" xmlns="http://www.w3.org/2000/svg">
<path d="M54.12 57.91C51.3667 57.91 48.73 57.4783 46.21 56.615C43.69 55.7283 41.485 54.4683 39.595 52.835C37.705 51.1783 36.34 49.2067 35.5 46.92L45.37 43.28C45.6033 43.9567 46.1167 44.61 46.91 45.24C47.7267 45.87 48.7533 46.395 49.99 46.815C51.2267 47.2117 52.6033 47.41 54.12 47.41C55.52 47.41 56.8383 47.2117 58.075 46.815C59.3117 46.395 60.315 45.8233 61.085 45.1C61.855 44.3767 62.24 43.5367 62.24 42.58C62.24 41.6 61.8317 40.795 61.015 40.165C60.2217 39.5117 59.195 38.9983 57.935 38.625C56.6983 38.2283 55.4267 37.9367 54.12 37.75C50.5733 37.2367 47.3883 36.3967 44.565 35.23C41.765 34.04 39.5483 32.4067 37.915 30.33C36.305 28.2533 35.5 25.6167 35.5 22.42C35.5 19.3633 36.3633 16.6917 38.09 14.405C39.8167 12.095 42.0917 10.2983 44.915 9.015C47.7617 7.73166 50.83 7.09 54.12 7.09C56.8733 7.09 59.51 7.53333 62.03 8.42C64.5733 9.28333 66.79 10.5433 68.68 12.2C70.57 13.8567 71.9233 15.84 72.74 18.15L62.87 21.72C62.6367 21.0433 62.1117 20.4017 61.295 19.795C60.5017 19.165 59.4867 18.6517 58.25 18.255C57.0133 17.8583 55.6367 17.66 54.12 17.66C52.7667 17.6367 51.4717 17.835 50.235 18.255C48.9983 18.675 47.9833 19.2467 47.19 19.97C46.3967 20.6933 46 21.51 46 22.42C46 23.68 46.3733 24.625 47.12 25.255C47.8667 25.8617 48.8467 26.2933 50.06 26.55C51.2967 26.8067 52.65 27.04 54.12 27.25C57.48 27.74 60.5717 28.615 63.395 29.875C66.2183 31.135 68.4817 32.815 70.185 34.915C71.8883 37.015 72.74 39.57 72.74 42.58C72.74 45.6367 71.8767 48.32 70.15 50.63C68.4467 52.9167 66.1833 54.7017 63.36 55.985C60.5367 57.2683 57.4567 57.91 54.12 57.91ZM113.819 57H101.709L94.7085 44.96L90.9285 49.44V57H80.4285V4.5H90.9285V33.13L100.239 22H113.959L101.919 36.42L113.819 57ZM141.516 22H152.016V57H141.481L140.991 53.85C140.127 55.0633 139.031 56.0433 137.701 56.79C136.394 57.5367 134.866 57.91 133.116 57.91C130.502 57.91 128.052 57.42 125.766 56.44C123.502 55.46 121.507 54.1067 119.781 52.38C118.054 50.63 116.701 48.6233 115.721 46.36C114.764 44.0733 114.286 41.6233 114.286 39.01C114.286 36.5133 114.741 34.18 115.651 32.01C116.561 29.84 117.832 27.9383 119.466 26.305C121.122 24.6483 123.024 23.3533 125.171 22.42C127.341 21.4867 129.662 21.02 132.136 21.02C134.142 21.02 135.962 21.44 137.596 22.28C139.252 23.0967 140.722 24.1233 142.006 25.36L141.516 22ZM132.836 47.83C134.282 47.83 135.601 47.4567 136.791 46.71C137.981 45.9633 138.926 44.96 139.626 43.7C140.326 42.44 140.676 41.04 140.676 39.5C140.676 37.96 140.326 36.56 139.626 35.3C138.926 34.04 137.981 33.0367 136.791 32.29C135.601 31.5433 134.282 31.17 132.836 31.17C131.389 31.17 130.071 31.5433 128.881 32.29C127.714 33.0367 126.781 34.04 126.081 35.3C125.404 36.56 125.066 37.96 125.066 39.5C125.066 41.04 125.416 42.44 126.116 43.7C126.816 44.96 127.749 45.9633 128.916 46.71C130.106 47.4567 131.412 47.83 132.836 47.83ZM191.907 34.635V57H181.407V37.575C181.407 36.4783 181.138 35.4867 180.602 34.6C180.065 33.69 179.353 32.9783 178.467 32.465C177.58 31.9283 176.588 31.66 175.492 31.66C174.395 31.66 173.392 31.9283 172.482 32.465C171.595 32.9783 170.883 33.69 170.347 34.6C169.833 35.4867 169.577 36.4783 169.577 37.575V57H159.077L159.042 22H169.542L169.577 24.205C170.743 23.2017 172.073 22.42 173.567 21.86C175.06 21.3 176.635 21.02 178.292 21.02C180.812 21.02 183.098 21.6383 185.152 22.875C187.205 24.0883 188.838 25.7217 190.052 27.775C191.288 29.8283 191.907 32.115 191.907 34.635ZM223.412 4.5H233.912V57H223.412V53.78C222.338 54.9933 221.055 55.985 219.562 56.755C218.092 57.525 216.412 57.91 214.522 57.91C211.978 57.91 209.598 57.4317 207.382 56.475C205.165 55.5183 203.205 54.2 201.502 52.52C199.822 50.8167 198.503 48.8567 197.547 46.64C196.59 44.4233 196.112 42.0433 196.112 39.5C196.112 36.9567 196.59 34.5767 197.547 32.36C198.503 30.1433 199.822 28.195 201.502 26.515C203.205 24.8117 205.165 23.4817 207.382 22.525C209.598 21.5683 211.978 21.09 214.522 21.09C216.412 21.09 218.092 21.475 219.562 22.245C221.055 22.9917 222.338 23.9833 223.412 25.22V4.5ZM214.662 47.83C216.108 47.83 217.427 47.4567 218.617 46.71C219.807 45.9633 220.752 44.96 221.452 43.7C222.152 42.44 222.502 41.04 222.502 39.5C222.502 37.96 222.152 36.56 221.452 35.3C220.752 34.04 219.807 33.0367 218.617 32.29C217.427 31.5433 216.108 31.17 214.662 31.17C213.215 31.17 211.897 31.5433 210.707 32.29C209.54 33.0367 208.607 34.04 207.907 35.3C207.23 36.56 206.892 37.96 206.892 39.5C206.892 41.04 207.242 42.44 207.942 43.7C208.642 44.96 209.575 45.9633 210.742 46.71C211.932 47.4567 213.238 47.83 214.662 47.83ZM256.952 57.91C253.732 57.91 250.792 57.0817 248.132 55.425C245.495 53.7683 243.383 51.54 241.797 48.74C240.233 45.94 239.452 42.8483 239.452 39.465C239.452 36.9217 239.907 34.5417 240.817 32.325C241.727 30.085 242.975 28.125 244.562 26.445C246.172 24.7417 248.038 23.4117 250.162 22.455C252.285 21.4983 254.548 21.02 256.952 21.02C259.752 21.02 262.307 21.6383 264.617 22.875C266.95 24.0883 268.91 25.745 270.497 27.845C272.107 29.9217 273.25 32.2667 273.927 34.88C274.603 37.4933 274.673 40.1883 274.137 42.965H250.792C251.118 43.7817 251.55 44.5283 252.087 45.205C252.647 45.8583 253.323 46.3833 254.117 46.78C254.933 47.1767 255.878 47.3867 256.952 47.41C257.978 47.4333 258.923 47.2117 259.787 46.745C260.673 46.2783 261.443 45.6483 262.097 44.855L272.807 47.34C271.383 50.4433 269.26 52.9867 266.437 54.97C263.613 56.93 260.452 57.91 256.952 57.91ZM250.407 35.265H263.532C263.205 34.2617 262.715 33.375 262.062 32.605C261.408 31.835 260.638 31.2283 259.752 30.785C258.888 30.3417 257.955 30.12 256.952 30.12C255.972 30.12 255.038 30.3417 254.152 30.785C253.288 31.2283 252.53 31.835 251.877 32.605C251.247 33.375 250.757 34.2617 250.407 35.265ZM279.731 57L279.696 22H290.196L290.231 24.205C291.398 23.2017 292.728 22.42 294.221 21.86C295.714 21.3 297.289 21.02 298.946 21.02C300.206 21.02 301.489 21.2067 302.796 21.58L298.666 32.22C297.849 31.8467 297.009 31.66 296.146 31.66C295.049 31.66 294.046 31.9283 293.136 32.465C292.249 32.9783 291.538 33.69 291.001 34.6C290.488 35.4867 290.231 36.4783 290.231 37.575V57H279.731ZM325.95 21.02C329.356 21.02 332.46 21.8483 335.26 23.505C338.06 25.1617 340.288 27.39 341.945 30.19C343.601 32.9667 344.43 36.0467 344.43 39.43C344.43 41.9733 343.951 44.365 342.995 46.605C342.038 48.845 340.708 50.8167 339.005 52.52C337.325 54.2 335.365 55.5183 333.125 56.475C330.908 57.4317 328.516 57.91 325.95 57.91C324.106 57.91 322.45 57.5133 320.98 56.72C319.51 55.9267 318.226 54.9233 317.13 53.71V57H306.63V4.5H317.13V25.22C318.226 23.9833 319.51 22.98 320.98 22.21C322.45 21.4167 324.106 21.02 325.95 21.02ZM325.81 47.76C327.256 47.76 328.575 47.3867 329.765 46.64C330.955 45.8933 331.9 44.89 332.6 43.63C333.3 42.37 333.65 40.97 333.65 39.43C333.65 37.9133 333.3 36.525 332.6 35.265C331.9 34.005 330.955 33.0017 329.765 32.255C328.575 31.485 327.256 31.1 325.81 31.1C324.386 31.1 323.08 31.485 321.89 32.255C320.723 33.0017 319.79 34.005 319.09 35.265C318.39 36.525 318.04 37.9133 318.04 39.43C318.04 40.97 318.39 42.37 319.09 43.63C319.79 44.89 320.723 45.8933 321.89 46.64C323.08 47.3867 324.386 47.76 325.81 47.76ZM365.438 57.91C362.218 57.91 359.278 57.0817 356.618 55.425C353.981 53.7683 351.87 51.5517 350.283 48.775C348.72 45.975 347.938 42.8833 347.938 39.5C347.938 36.9333 348.393 34.5417 349.303 32.325C350.213 30.085 351.461 28.125 353.048 26.445C354.658 24.7417 356.525 23.4117 358.648 22.455C360.771 21.4983 363.035 21.02 365.438 21.02C368.658 21.02 371.586 21.8483 374.223 23.505C376.883 25.1617 378.995 27.39 380.558 30.19C382.145 32.99 382.938 36.0933 382.938 39.5C382.938 42.0433 382.483 44.4233 381.573 46.64C380.663 48.8567 379.403 50.8167 377.793 52.52C376.206 54.2 374.351 55.5183 372.228 56.475C370.128 57.4317 367.865 57.91 365.438 57.91ZM365.438 47.41C366.768 47.41 367.958 47.0483 369.008 46.325C370.081 45.6017 370.921 44.645 371.528 43.455C372.135 42.2417 372.438 40.9233 372.438 39.5C372.438 38.03 372.111 36.6883 371.458 35.475C370.828 34.2617 369.976 33.305 368.903 32.605C367.853 31.8817 366.698 31.52 365.438 31.52C364.131 31.52 362.941 31.8933 361.868 32.64C360.818 33.3633 359.978 34.3317 359.348 35.545C358.741 36.7583 358.438 38.0767 358.438 39.5C358.438 40.9933 358.753 42.335 359.383 43.525C360.036 44.715 360.888 45.66 361.938 46.36C363.011 47.06 364.178 47.41 365.438 47.41ZM388.217 57L388.182 22H398.682L398.717 24.205C399.884 23.2017 401.214 22.42 402.707 21.86C404.201 21.3 405.776 21.02 407.432 21.02C408.692 21.02 409.976 21.2067 411.282 21.58L407.152 32.22C406.336 31.8467 405.496 31.66 404.632 31.66C403.536 31.66 402.532 31.9283 401.622 32.465C400.736 32.9783 400.024 33.69 399.487 34.6C398.974 35.4867 398.717 36.4783 398.717 37.575V57H388.217ZM438.397 22H448.897V57.35C448.897 60.01 448.36 62.39 447.287 64.49C446.237 66.6133 444.79 68.4217 442.947 69.915C441.104 71.4083 438.98 72.54 436.577 73.31C434.197 74.1033 431.677 74.5 429.017 74.5C426.544 74.5 424.175 74.0217 421.912 73.065C419.649 72.1317 417.63 70.825 415.857 69.145C414.084 67.465 412.684 65.5167 411.657 63.3L421.247 58.96C421.737 60.01 422.379 60.8967 423.172 61.62C423.965 62.3667 424.864 62.9383 425.867 63.335C426.87 63.7317 427.92 63.93 429.017 63.93C430.23 63.93 431.397 63.8017 432.517 63.545C433.637 63.2883 434.64 62.8917 435.527 62.355C436.414 61.8183 437.114 61.13 437.627 60.29C438.14 59.4733 438.397 58.4933 438.397 57.35V53.92C437.347 55.11 436.099 56.0783 434.652 56.825C433.229 57.5483 431.584 57.91 429.717 57.91C427.174 57.91 424.794 57.4317 422.577 56.475C420.36 55.5183 418.4 54.2 416.697 52.52C415.017 50.8167 413.699 48.8567 412.742 46.64C411.785 44.4233 411.307 42.0433 411.307 39.5C411.307 36.9567 411.785 34.5767 412.742 32.36C413.699 30.1433 415.017 28.195 416.697 26.515C418.4 24.8117 420.36 23.4817 422.577 22.525C424.794 21.5683 427.174 21.09 429.717 21.09C431.584 21.09 433.229 21.4633 434.652 22.21C436.099 22.9333 437.347 23.89 438.397 25.08V22ZM429.857 47.83C431.304 47.83 432.622 47.4567 433.812 46.71C435.002 45.9633 435.947 44.96 436.647 43.7C437.347 42.44 437.697 41.04 437.697 39.5C437.697 37.96 437.347 36.56 436.647 35.3C435.947 34.04 435.002 33.0367 433.812 32.29C432.622 31.5433 431.304 31.17 429.857 31.17C428.434 31.17 427.127 31.5433 425.937 32.29C424.77 33.0367 423.837 34.04 423.137 35.3C422.437 36.56 422.087 37.96 422.087 39.5C422.087 41.04 422.437 42.44 423.137 43.7C423.837 44.96 424.77 45.9633 425.937 46.71C427.127 47.4567 428.434 47.83 429.857 47.83ZM36.2 121L45.72 72H54.68L65.67 100.91L76.66 72H85.62L95.14 121H84.43L79.32 94.54L69.31 121H62.03L52.02 94.54L46.91 121H36.2ZM102.134 108.295V86H112.634V105.355C112.634 106.452 112.902 107.455 113.439 108.365C113.976 109.252 114.687 109.963 115.574 110.5C116.484 111.013 117.476 111.27 118.549 111.27C119.646 111.27 120.637 111.013 121.524 110.5C122.434 109.963 123.146 109.252 123.659 108.365C124.196 107.455 124.464 106.452 124.464 105.355V86H134.964L134.999 121H124.499L124.464 118.725C123.297 119.728 121.967 120.51 120.474 121.07C118.981 121.63 117.406 121.91 115.749 121.91C113.252 121.91 110.966 121.303 108.889 120.09C106.836 118.853 105.191 117.208 103.954 115.155C102.741 113.102 102.134 110.815 102.134 108.295ZM152.1 121.63C150.327 121.467 148.624 121.082 146.99 120.475C145.357 119.868 143.899 119.04 142.615 117.99C141.332 116.94 140.317 115.657 139.57 114.14L148.39 110.36C148.624 110.617 148.95 110.943 149.37 111.34C149.79 111.713 150.315 112.052 150.945 112.355C151.599 112.658 152.38 112.81 153.29 112.81C153.897 112.81 154.48 112.752 155.04 112.635C155.624 112.495 156.09 112.262 156.44 111.935C156.814 111.608 157 111.153 157 110.57C157 109.917 156.755 109.427 156.265 109.1C155.799 108.75 155.227 108.505 154.55 108.365C153.874 108.202 153.244 108.073 152.66 107.98C150.584 107.653 148.589 107 146.675 106.02C144.785 105.017 143.234 103.722 142.02 102.135C140.807 100.525 140.2 98.6467 140.2 96.5C140.2 94.0967 140.819 92.02 142.055 90.27C143.292 88.52 144.902 87.1783 146.885 86.245C148.892 85.2883 151.05 84.81 153.36 84.81C156.09 84.81 158.61 85.37 160.92 86.49C163.254 87.61 165.167 89.22 166.66 91.32L158.4 96.22C158.12 95.87 157.77 95.52 157.35 95.17C156.954 94.7967 156.487 94.4817 155.95 94.225C155.437 93.945 154.877 93.77 154.27 93.7C153.454 93.63 152.719 93.665 152.065 93.805C151.435 93.9217 150.934 94.1783 150.56 94.575C150.187 94.9483 150 95.4967 150 96.22C150 96.8967 150.327 97.3867 150.98 97.69C151.634 97.9933 152.369 98.215 153.185 98.355C154.002 98.495 154.667 98.6467 155.18 98.81C157.187 99.4633 159.077 100.315 160.85 101.365C162.624 102.415 164.047 103.687 165.12 105.18C166.217 106.673 166.73 108.423 166.66 110.43C166.66 112.763 165.96 114.817 164.56 116.59C163.16 118.363 161.352 119.705 159.135 120.615C156.919 121.525 154.574 121.863 152.1 121.63ZM187.225 121.91C184.005 121.91 181.065 121.082 178.405 119.425C175.768 117.768 173.657 115.54 172.07 112.74C170.507 109.94 169.725 106.848 169.725 103.465C169.725 100.922 170.18 98.5417 171.09 96.325C172 94.085 173.248 92.125 174.835 90.445C176.445 88.7417 178.312 87.4117 180.435 86.455C182.558 85.4983 184.822 85.02 187.225 85.02C190.025 85.02 192.58 85.6383 194.89 86.875C197.223 88.0883 199.183 89.745 200.77 91.845C202.38 93.9217 203.523 96.2667 204.2 98.88C204.877 101.493 204.947 104.188 204.41 106.965H181.065C181.392 107.782 181.823 108.528 182.36 109.205C182.92 109.858 183.597 110.383 184.39 110.78C185.207 111.177 186.152 111.387 187.225 111.41C188.252 111.433 189.197 111.212 190.06 110.745C190.947 110.278 191.717 109.648 192.37 108.855L203.08 111.34C201.657 114.443 199.533 116.987 196.71 118.97C193.887 120.93 190.725 121.91 187.225 121.91ZM180.68 99.265H193.805C193.478 98.2617 192.988 97.375 192.335 96.605C191.682 95.835 190.912 95.2283 190.025 94.785C189.162 94.3417 188.228 94.12 187.225 94.12C186.245 94.12 185.312 94.3417 184.425 94.785C183.562 95.2283 182.803 95.835 182.15 96.605C181.52 97.375 181.03 98.2617 180.68 99.265ZM207.544 108.295V86H218.044V105.355C218.044 106.452 218.312 107.455 218.849 108.365C219.386 109.252 220.097 109.963 220.984 110.5C221.894 111.013 222.886 111.27 223.959 111.27C225.056 111.27 226.047 111.013 226.934 110.5C227.844 109.963 228.556 109.252 229.069 108.365C229.606 107.455 229.874 106.452 229.874 105.355V86H240.374L240.409 121H229.909L229.874 118.725C228.707 119.728 227.377 120.51 225.884 121.07C224.391 121.63 222.816 121.91 221.159 121.91C218.662 121.91 216.376 121.303 214.299 120.09C212.246 118.853 210.601 117.208 209.364 115.155C208.151 113.102 207.544 110.815 207.544 108.295ZM247.43 121V86H257.93V88.205C259.097 87.2017 260.427 86.42 261.92 85.86C263.414 85.3 264.989 85.02 266.645 85.02C268.979 85.02 271.125 85.5567 273.085 86.63C275.045 87.68 276.632 89.0917 277.845 90.865C279.082 89.0917 280.669 87.68 282.605 86.63C284.565 85.5567 286.7 85.02 289.01 85.02C291.53 85.02 293.817 85.6383 295.87 86.875C297.924 88.0883 299.557 89.7217 300.77 91.775C302.007 93.8283 302.625 96.115 302.625 98.635V121H292.125V101.575C292.125 100.478 291.857 99.4867 291.32 98.6C290.784 97.7133 290.072 97.0017 289.185 96.465C288.299 95.9283 287.307 95.66 286.21 95.66C285.114 95.66 284.11 95.9283 283.2 96.465C282.314 97.0017 281.602 97.7133 281.065 98.6C280.529 99.4867 280.26 100.478 280.26 101.575V121H269.76V101.575C269.76 100.478 269.492 99.4867 268.955 98.6C268.442 97.7133 267.73 97.0017 266.82 96.465C265.934 95.9283 264.942 95.66 263.845 95.66C262.772 95.66 261.78 95.9283 260.87 96.465C259.984 97.0017 259.272 97.7133 258.735 98.6C258.199 99.4867 257.93 100.478 257.93 101.575V121H247.43Z" fill="#2E2E2E"/>
<line x1="7" y1="3" x2="7.00001" y2="127" stroke="#2E2E2E" stroke-width="14"/>
</svg>
